{
  "accessors": [
    {
      "bufferView": 2,
      "componentType": 5126,
      "count": 2194,
      "max": [
        33.916496276855469,
        30.590980529785156,
        15.910223007202148
      ],
      "min": [
        -15.221473693847656,
        -0.5,
        -15.910223007202148
      ],
      "type": "VEC3"
    },
    {
      "bufferView": 2,
      "byteOffset": 26328,
      "componentType": 5126,
      "count": 2194,
      "max": [
        1,
        1,
        1
      ],
      "min": [
        -1,
        -1,
        -1
      ],
      "type": "VEC3"
    },
    {
      "bufferView": 3,
      "componentType": 5126,
      "count": 2194,
      "max": [
        1,
        1,
        1,
        1
      ],
      "min": [
        -1,
        -1,
        -1,
        -1
      ],
      "type": "VEC4"
    },
    {
      "bufferView": 1,
      "componentType": 5126,
      "count": 2194,
      "max": [
        0.99802398681640625,
        0.99804699420928955
      ],
      "min": [
        0.0019529999699443579,
        0.0019529999699443579
      ],
      "type": "VEC2"
    },
    {
      "bufferView": 0,
      "componentType": 5125,
      "count": 4263,
      "max": [
        2193
      ],
      "min": [
        0
      ],
      "type": "SCALAR"
    },
    {
      "bufferView": 2,
      "byteOffset": 52656,
      "componentType": 5126,
      "count": 11187,
      "max": [
        33.147865295410156,
        30.197910308837891,
        13.970505714416504
      ],
      "min": [
        -15.292228698730469,
        4.2299699783325195,
        -13.86041259765625
      ],
      "type": "VEC3"
    },
    {
      "bufferView": 2,
      "byteOffset": 186900,
      "componentType": 5126,
      "count": 11187,
      "max": [
        0.98953098058700562,
        0.99991786479949951,
        0.98866432905197144
      ],
      "min": [
        -0.98953098058700562,
        -0.6880650520324707,
        -0.98866420984268188
      ],
      "type": "VEC3"
    },
    {
      "bufferView": 3,
      "byteOffset": 35104,
      "componentType": 5126,
      "count": 11187,
      "max": [
        1,
        0.98953098058700562,
        1,
        1
      ],
      "min": [
        -1,
        -0.98953068256378174,
        -1,
        -1
      ],
      "type": "VEC4"
    },
    {
      "bufferView": 1,
      "byteOffset": 17552,
      "componentType": 5126,
      "count": 11187,
      "max": [
        0.98994898796081543,
        0.99804699420928955
      ],
      "min": [
        0.0019529999699443579,
        0.0019529999699443579
      ],
      "type": "VEC2"
    },
    {
      "bufferView": 0,
      "byteOffset": 17052,
      "componentType": 5125,
      "count": 16812,
      "max": [
        11186
      ],
      "min": [
        0
      ],
      "type": "SCALAR"
    },
    {
      "bufferView": 2,
      "byteOffset": 321144,
      "componentType": 5126,
      "count": 176,
      "max": [
        3.8354949951171875,
        36.005527496337891,
        -11.584029197692871
      ],
      "min": [
        -3.8354949951171875,
        -0.5,
        -17.575122833251953
      ],
      "type": "VEC3"
    },
    {
      "bufferView": 2,
      "byteOffset": 323256,
      "componentType": 5126,
      "count": 176,
      "max": [
        0.99862933158874512,
        1,
        0.99960333108901978
      ],
      "min": [
        -0.99863147735595703,
        -0.99832558631896973,
        -0.99998021125793457
      ],
      "type": "VEC3"
    },
    {
      "bufferView": 3,
      "byteOffset": 214096,
      "componentType": 5126,
      "count": 176,
      "max": [
        0.9995887279510498,
        0.99811041355133057,
        0.99996531009674072,
        1
      ],
      "min": [
        -0.99998694658279419,
        -1,
        -1,
        1
      ],
      "type": "VEC4"
    },
    {
      "bufferView": 1,
      "byteOffset": 107048,
      "componentType": 5126,
      "count": 176,
      "max": [
        0.97332102060317993,
        0.99804699420928955
      ],
      "min": [
        0.0019529999699443579,
        0.0019529999699443579
      ],
      "type": "VEC2"
    },
    {
      "bufferView": 0,
      "byteOffset": 84300,
      "componentType": 5125,
      "count": 684,
      "max": [
        175
      ],
      "min": [
        0
      ],
      "type": "SCALAR"
    },
    {
      "bufferView": 2,
      "byteOffset": 325368,
      "componentType": 5126,
      "count": 104,
      "max": [
        2.0415260791778564,
        7.1681637763977051,
        13.024998664855957
      ],
      "min": [
        -2.0415248870849609,
        -0.5,
        11.868572235107422
      ],
      "type": "VEC3"
    },
    {
      "bufferView": 2,
      "byteOffset": 326616,
      "componentType": 5126,
      "count": 104,
      "max": [
        1,
        1,
        1
      ],
      "min": [
        -1,
        -1,
        0
      ],
      "type": "VEC3"
    },
    {
      "bufferView": 3,
      "byteOffset": 216912,
      "componentType": 5126,
      "count": 104,
      "max": [
        1,
        0.1065136045217514,
        1,
        1
      ],
      "min": [
        0,
        -0.10212650150060654,
        -1,
        1
      ],
      "type": "VEC4"
    },
    {
      "bufferView": 1,
      "byteOffset": 108456,
      "componentType": 5126,
      "count": 104,
      "max": [
        0.97567802667617798,
        0.98831802606582642
      ],
      "min": [
        0.0019529999699443579,
        0.0019529999699443579
      ],
      "type": "VEC2"
    },
    {
      "bufferView": 0,
      "byteOffset": 87036,
      "componentType": 5125,
      "count": 150,
      "max": [
        103
      ],
      "min": [
        0
      ],
      "type": "SCALAR"
    },
    {
      "bufferView": 2,
      "byteOffset": 327864,
      "componentType": 5126,
      "count": 83,
      "max": [
        33.322216033935547,
        29.034954071044922,
        12.5
      ],
      "min": [
        -12.5,
        1.9999999949504854e-06,
        -12.5
      ],
      "type": "VEC3"
    },
    {
      "bufferView": 2,
      "byteOffset": 328860,
      "componentType": 5126,
      "count": 83,
      "max": [
        1,
        0.59562426805496216,
        1
      ],
      "min": [
        -1,
        0,
        -1
      ],
      "type": "VEC3"
    },
    {
      "bufferView": 3,
      "byteOffset": 218576,
      "componentType": 5126,
      "count": 83,
      "max": [
        1,
        0.86921870708465576,
        1,
        1
      ],
      "min": [
        -1,
        -0.86921870708465576,
        -1,
        1
      ],
      "type": "VEC4"
    },
    {
      "bufferView": 1,
      "byteOffset": 109288,
      "componentType": 5126,
      "count": 83,
      "max": [
        0.99804699420928955,
        0.96669900417327881
      ],
      "min": [
        0.0019529999699443579,
        0.0019529999699443579
      ],
      "type": "VEC2"
    },
    {
      "bufferView": 0,
      "byteOffset": 87636,
      "componentType": 5125,
      "count": 171,
      "max": [
        82
      ],
      "min": [
        0
      ],
      "type": "SCALAR"
    }
  ],
  "asset": {
    "extras": {
      "author": "Leontev Artem (https://sketchfab.com/artem17450)",
      "license": "CC-BY-4.0 (http://creativecommons.org/licenses/by/4.0/)",
      "source": "https://sketchfab.com/3d-models/stylized-house-free-b4a97972b78b4b899ef8f9cadc3a828d",
      "title": "Stylized House FREE"
    },
    "generator": "Sketchfab-9.37.0",
    "version": "2.0"
  },
  "bufferViews": [
    {
      "buffer": 0,
      "byteLength": 88320,
      "byteOffset": 0,
      "name": "floatBufferViews",
      "target": 34963
    },
    {
      "buffer": 0,
      "byteLength": 109952,
      "byteOffset": 88320,
      "byteStride": 8,
      "name": "floatBufferViews",
      "target": 34962
    },
    {
      "buffer": 0,
      "byteLength": 329856,
      "byteOffset": 198272,
      "byteStride": 12,
      "name": "floatBufferViews",
      "target": 34962
    },
    {
      "buffer": 0,
      "byteLength": 219904,
      "byteOffset": 528128,
      "byteStride": 16,
      "name": "floatBufferViews",
      "target": 34962
    }
  ],
  "buffers": [
    {
      "byteLength": 748032,
      "uri": "scene.bin"
    }
  ],
  "images": [
    {
      "uri": "textures/Building_baseColor.jpeg"
    },
    {
      "uri": "textures/Building_metallicRoughness.png"
    },
    {
      "uri": "textures/Building_normal.png"
    },
    {
      "uri": "textures/Door_baseColor.jpeg"
    },
    {
      "uri": "textures/Door_metallicRoughness.png"
    },
    {
      "uri": "textures/Door_normal.png"
    },
    {
      "uri": "textures/Pipe_baseColor.jpeg"
    },
    {
      "uri": "textures/Pipe_metallicRoughness.png"
    },
    {
      "uri": "textures/Pipe_normal.png"
    },
    {
      "uri": "textures/Roof_baseColor.jpeg"
    },
    {
      "uri": "textures/Roof_metallicRoughness.png"
    },
    {
      "uri": "textures/Roof_normal.png"
    },
    {
      "uri": "textures/Wood_baseColor.jpeg"
    },
    {
      "uri": "textures/Wood_metallicRoughness.png"
    },
    {
      "uri": "textures/Wood_emissive.jpeg"
    },
    {
      "uri": "textures/Wood_normal.png"
    }
  ],
  "materials": [
    {
      "doubleSided": true,
      "name": "Building",
      "normalTexture": {
        "index": 2,
        "scale": 1,
        "texCoord": 0
      },
      "occlusionTexture": {
        "index": 1,
        "strength": 1,
        "texCoord": 0
      },
      "pbrMetallicRoughness": {
        "baseColorFactor": [
          1,
          1,
          1,
          1
        ],
        "baseColorTexture": {
          "index": 0,
          "texCoord": 0
        },
        "metallicFactor": 1,
        "metallicRoughnessTexture": {
          "index": 1,
          "texCoord": 0
        },
        "roughnessFactor": 1
      }
    },
    {
      "doubleSided": true,
      "name": "Door",
      "normalTexture": {
        "index": 5,
        "scale": 1,
        "texCoord": 0
      },
      "occlusionTexture": {
        "index": 4,
        "strength": 1,
        "texCoord": 0
      },
      "pbrMetallicRoughness": {
        "baseColorFactor": [
          1,
          1,
          1,
          1
        ],
        "baseColorTexture": {
          "index": 3,
          "texCoord": 0
        },
        "metallicFactor": 1,
        "metallicRoughnessTexture": {
          "index": 4,
          "texCoord": 0
        },
        "roughnessFactor": 1
      }
    },
    {
      "doubleSided": true,
      "name": "Pipe",
      "normalTexture": {
        "index": 8,
        "scale": 1,
        "texCoord": 0
      },
      "occlusionTexture": {
        "index": 7,
        "strength": 1,
        "texCoord": 0
      },
      "pbrMetallicRoughness": {
        "baseColorFactor": [
          1,
          1,
          1,
          1
        ],
        "baseColorTexture": {
          "index": 6,
          "texCoord": 0
        },
        "metallicFactor": 1,
        "metallicRoughnessTexture": {
          "index": 7,
          "texCoord": 0
        },
        "roughnessFactor": 1
      }
    },
    {
      "doubleSided": true,
      "name": "Roof",
      "normalTexture": {
        "index": 11,
        "scale": 1,
        "texCoord": 0
      },
      "occlusionTexture": {
        "index": 10,
        "strength": 1,
        "texCoord": 0
      },
      "pbrMetallicRoughness": {
        "baseColorFactor": [
          1,
          1,
          1,
          1
        ],
        "baseColorTexture": {
          "index": 9,
          "texCoord": 0
        },
        "metallicFactor": 1,
        "metallicRoughnessTexture": {
          "index": 10,
          "texCoord": 0
        },
        "roughnessFactor": 1
      }
    },
    {
      "doubleSided": true,
      "emissiveFactor": [
        1,
        1,
        1
      ],
      "emissiveTexture": {
        "index": 14,
        "texCoord": 0
      },
      "name": "Wood",
      "normalTexture": {
        "index": 15,
        "scale": 1,
        "texCoord": 0
      },
      "occlusionTexture": {
        "index": 13,
        "strength": 1,
        "texCoord": 0
      },
      "pbrMetallicRoughness": {
        "baseColorFactor": [
          1,
          1,
          1,
          1
        ],
        "baseColorTexture": {
          "index": 12,
          "texCoord": 0
        },
        "metallicFactor": 1,
        "metallicRoughnessTexture": {
          "index": 13,
          "texCoord": 0
        },
        "roughnessFactor": 1
      }
    }
  ],
  "meshes": [
    {
      "name": "defaultMaterial",
      "primitives": [
        {
          "attributes": {
            "NORMAL": 1,
            "POSITION": 0,
            "TANGENT": 2,
            "TEXCOORD_0": 3
          },
          "indices": 4,
          "material": 4,
          "mode": 4
        }
      ]
    },
    {
      "name": "defaultMaterial",
      "primitives": [
        {
          "attributes": {
            "NORMAL": 6,
            "POSITION": 5,
            "TANGENT": 7,
            "TEXCOORD_0": 8
          },
          "indices": 9,
          "material": 3,
          "mode": 4
        }
      ]
    },
    {
      "name": "defaultMaterial",
      "primitives": [
        {
          "attributes": {
            "NORMAL": 11,
            "POSITION": 10,
            "TANGENT": 12,
            "TEXCOORD_0": 13
          },
          "indices": 14,
          "material": 2,
          "mode": 4
        }
      ]
    },
    {
      "name": "defaultMaterial",
      "primitives": [
        {
          "attributes": {
            "NORMAL": 16,
            "POSITION": 15,
            "TANGENT": 17,
            "TEXCOORD_0": 18
          },
          "indices": 19,
          "material": 1,
          "mode": 4
        }
      ]
    },
    {
      "name": "defaultMaterial",
      "primitives": [
        {
          "attributes": {
            "NORMAL": 21,
            "POSITION": 20,
            "TANGENT": 22,
            "TEXCOORD_0": 23
          },
          "indices": 24,
          "material": 0,
          "mode": 4
        }
      ]
    }
  ],
  "nodes": [
    {
      "children": [
        1
      ],
      "name": "RootNode (gltf orientation matrix)",
      "rotation": [
        -0.70710678118654746,
        -0,
        -0,
        0.70710678118654757
      ]
    },
    {
      "children": [
        2
      ],
      "name": "RootNode (model correction matrix)"
    },
    {
      "children": [
        3,
        5,
        7,
        9,
        11
      ],
      "matrix": [
        1,
        0,
        0,
        0,
        0,
        -4.3711390063094768e-08,
        0.999999999999999,
        0,
        0,
        -0.999999999999999,
        -4.3711390063094768e-08,
        0,
        0,
        0,
        0,
        1
      ],
      "name": "Collada visual scene group"
    },
    {
      "children": [
        4
      ],
      "name": "Wood"
    },
    {
      "mesh": 0,
      "name": "defaultMaterial"
    },
    {
      "children": [
        6
      ],
      "name": "Roof"
    },
    {
      "mesh": 1,
      "name": "defaultMaterial"
    },
    {
      "children": [
        8
      ],
      "name": "Pipe"
    },
    {
      "mesh": 2,
      "name": "defaultMaterial"
    },
    {
      "children": [
        10
      ],
      "name": "Door"
    },
    {
      "mesh": 3,
      "name": "defaultMaterial"
    },
    {
      "children": [
        12
      ],
      "name": "Building"
    },
    {
      "mesh": 4,
      "name": "defaultMaterial"
    }
  ],
  "samplers": [
    {
      "magFilter": 9729,
      "minFilter": 9987,
      "wrapS": 10497,
      "wrapT": 10497
    }
  ],
  "scene": 0,
  "scenes": [
    {
      "name": "OSG_Scene",
      "nodes": [
        0
      ]
    }
  ],
  "textures": [
    {
      "sampler": 0,
      "source": 0
    },
    {
      "sampler": 0,
      "source": 1
    },
    {
      "sampler": 0,
      "source": 2
    },
    {
      "sampler": 0,
      "source": 3
    },
    {
      "sampler": 0,
      "source": 4
    },
    {
      "sampler": 0,
      "source": 5
    },
    {
      "sampler": 0,
      "source": 6
    },
    {
      "sampler": 0,
      "source": 7
    },
    {
      "sampler": 0,
      "source": 8
    },
    {
      "sampler": 0,
      "source": 9
    },
    {
      "sampler": 0,
      "source": 10
    },
    {
      "sampler": 0,
      "source": 11
    },
    {
      "sampler": 0,
      "source": 12
    },
    {
      "sampler": 0,
      "source": 13
    },
    {
      "sampler": 0,
      "source": 14
    },
    {
      "sampler": 0,
      "source": 15
    }
  ]
}

